<svg preserveAspectRatio="xMidYMid meet" focusable="false" aria-hidden="false" aria-label="Royal Canin" role="img" viewBox="0 0 222.6 77.7" class="sc-a22c687d-0 fygTjr icon-logo normal" data-qa="header-logo-image"><path id="text" d="M98,71.4h-6l0,0c-0.2,0-0.3-0.2-0.3-0.3V53c0.1-0.3,0.1-0.7,0-1c-0.3-1.7-1.9-2.8-3.6-2.6  c-1.7,0.3-2.8,1.9-2.6,3.6v22.6c0,0.9,0.7,1.7,1.7,1.8H98c0.1,0,0.2,0,0.3,0c1.6-0.1,2.8-1.5,2.7-3.1C101,72.5,99.7,71.3,98,71.4z  M76.3,50.9l-16,21.6c-0.4,0.5-0.6,1.1-0.6,1.8c0,0.9,0.4,1.9,1.3,2.4c1.4,0.9,3.1,0.6,4.1-0.6l3.1-4.2h7.5v2.4  c0.1,1.7,1.5,3,3.1,2.9l0,0c1.7,0,2.9-1.4,2.9-2.9V52.9c0-0.9-0.4-1.8-1-2.3C79.4,49.4,77.4,49.5,76.3,50.9z M75.6,65.9h-2.8  c-0.1,0-0.2-0.1-0.2-0.2v-0.1l3-4.1C75.6,61.5,75.6,65.9,75.6,65.9z M67.5,53c0-1.6-1.3-2.9-2.8-2.9c-0.8,0-1.6,0.3-2.1,0.8L55.8,58  c-0.1,0.1-0.2,0.1-0.3,0.1s-0.2,0-0.2-0.1l-6.8-7.1c-0.5-0.5-1.3-0.9-2.1-0.9c-1.6,0-2.8,1.3-2.8,2.8c0,0.7,0.3,1.5,0.7,2l8.3,9.5  l0.1,10c0,1.6,1.3,2.9,2.9,2.9c1.6,0,2.9-1.3,2.9-2.9l0.2-9.9l8.1-9.5C67.3,54.3,67.5,53.6,67.5,53z M32.4,50  c-7.5,0-13.6,6.1-13.6,13.6s6.1,13.6,13.6,13.6S46,71.1,46,63.6C46,56.2,39.9,50.1,32.4,50z M32.4,70.9c-4.1,0-7.3-3.2-7.3-7.3  c0-4.1,3.2-7.3,7.3-7.3s7.3,3.2,7.3,7.3S36.5,70.9,32.4,70.9z M175.9,49.4c-1.5,0.1-2.7,1.3-2.7,2.7v12.7c0,0.1-0.1,0.2-0.2,0.2  c-0.1,0-0.1,0-0.1-0.1l-7.4-13.1c-1.1-2-3.7-2.6-5.6-1.4c-1.1,0.7-1.9,2-2,3.3v20.8c0.1,1.7,1.6,2.9,3.1,2.8s2.7-1.3,2.8-2.8V61.9  c0-0.1,0.1-0.2,0.2-0.2s0.1,0,0.1,0.1l7.6,13.4c1,1.9,3.4,2.5,5.3,1.5c1.3-0.7,2-2,2-3.3V52.2C178.9,50.6,177.6,49.3,175.9,49.4z  M14,66.2c2.4-1.5,4-4.1,3.9-6.9c0,0,0,0,0-0.1c0.1-4.9-3.9-9-8.8-9.1c-2.4-0.2-4.9,0.6-6.6,2.3C0.6,54.2,0,56.6,0,59.2l0.4,15.1  c0,1.6,1.3,2.9,2.9,2.9c1.6,0,2.9-1.3,2.9-2.9l0.1-7.2l0,0c0-0.2,0.1-0.3,0.3-0.3c0,0,0.1,0,0.2,0l7.1,9.7c0.5,0.5,1.1,0.7,1.9,0.7  c1.6,0,2.8-1.3,2.9-2.8c0-0.4-0.1-0.8-0.3-1.3L14,66.2z M8.9,62c-0.2,0-0.3,0-0.5,0c-1.7-0.1-2.8-1.6-2.7-3.1  c0.1-1.7,1.6-2.8,3.1-2.7c0.2,0,0.3,0,0.5,0c1.7,0.1,2.8,1.6,2.7,3.1C11.9,60.9,10.4,62.3,8.9,62z M129.8,68.2  c-0.4,0-0.9,0.1-1.4,0.3l-2.4,1.6c-1.1,0.7-2.5,1.1-3.9,1.1c-4.2-0.2-7.3-3.8-7.1-7.8c0.2-3.9,3.2-6.9,7.1-7.1  c1.4,0,2.7,0.4,3.9,1.1l2.3,1.6c0.4,0.2,0.8,0.3,1.4,0.3c1.6,0,2.9-1.3,2.9-2.9l0,0c0-0.6-0.2-1.4-0.7-1.9c-2.3-2.7-5.7-4.3-9.4-4.3  c-7.5,0-13.6,6.1-13.6,13.6l0,0c0,7.2,5.6,13.2,12.8,13.6c3.9,0,7.5-1.6,10.2-4.4c0.4-0.5,0.7-1.1,0.6-1.9  C132.8,69.5,131.4,68.2,129.8,68.2z M185.4,49.3c-1.8,0-3.1,1.5-3.1,3.1v21.9c0,1.8,1.5,3.1,3.1,3.1c1.8,0,3.1-1.5,3.1-3.1V52.4  C188.5,50.7,187.2,49.3,185.4,49.3z M139.9,50.8c-0.6-0.6-1.5-1-2.4-1c-1.8,0-3.1,0.8-3.1,2.6v21.9l0,0c0,1.7,1.4,2.9,3,2.9  s3-1.3,3.1-2.9v-2.4h7.5l3.1,4.2c0.5,0.7,1.5,1.1,2.4,1.1c1.7,0,2.9-1.4,2.9-2.9c0-0.6-0.2-1.3-0.6-1.8L139.9,50.8z M143.5,65.7  c0,0.1-0.1,0.2-0.2,0.2h-2.8v-4.5l3,4.2C143.6,65.6,143.6,65.6,143.5,65.7z M209.9,49.4c-1.5,0.1-2.7,1.3-2.7,2.7v12.7  c0,0.1-0.1,0.2-0.2,0.2c-0.1,0-0.1,0-0.2-0.1l-7.3-13.1c-1.1-2-3.7-2.6-5.6-1.4c-1.1,0.7-1.9,2-2,3.3v20.8c0,1.7,1.4,3,3,3  s3-1.4,3-3V61.9c0-0.1,0.1-0.2,0.2-0.2s0.1,0,0.1,0.1l7.6,13.4c1,1.9,3.4,2.5,5.3,1.5c1.3-0.7,2-2,2-3.3V52.2  C212.9,50.6,211.5,49.3,209.9,49.4z M220.7,51.9c0-0.1,0-0.1,0-0.2c0-0.8-0.6-1-1.3-1h-0.9c-0.3,0-0.4,0.2-0.4,0.3v2.7  c0,0.3,0.1,0.4,0.4,0.4s0.4-0.2,0.4-0.4v-1h0.2l0.5,1c0.1,0.2,0.2,0.4,0.5,0.4c0.3,0,0.4-0.1,0.4-0.3c0-0.1,0-0.1,0-0.2l-0.6-0.9  C220.3,52.8,220.7,52.3,220.7,51.9z M219.5,52.1h-0.6v-0.8h0.6c0.3,0,0.5,0.1,0.5,0.4S219.8,52.1,219.5,52.1z M219.4,49.2  L219.4,49.2c-1.8,0-3.2,1.5-3.2,3.2s1.5,3.2,3.2,3.2s3.2-1.5,3.2-3.2C222.5,50.7,221.1,49.2,219.4,49.2z M219.4,54.8L219.4,54.8  c-1.4,0-2.4-1-2.4-2.4c0-1.4,1-2.4,2.4-2.4s2.4,1,2.4,2.4C221.8,53.7,220.7,54.8,219.4,54.8z"></path><path id="crown" d="M132.7,35.4c-6.4-4.7-16-7.5-25.9-7.5s-19.6,2.8-25.9,7.5c-0.6,0.4-0.9,1.1-0.9,1.9c0,1.4,1,2.4,2.4,2.4l0,0  c0.5,0,1-0.2,1.5-0.5c4.3-3.2,12.6-6.6,23.1-6.6s18.7,3.4,23,6.6l0.1,0.1c1,0.7,2.6,0.5,3.3-0.6C134,37.6,133.8,36.1,132.7,35.4z  M106.8,33.6c-9.2,0-17.9,2.7-23.3,7.2c0,0,0,0-0.1,0c-0.6,0.6-0.7,1.6-0.2,2.3c0.3,0.4,0.7,0.6,1.3,0.6c0.4,0,0.7-0.1,1-0.4  c4.8-4,12.8-6.5,21.2-6.5c8.4,0,16.3,2.4,21.2,6.5c0.7,0.6,1.8,0.5,2.3-0.2c0.6-0.7,0.5-1.8-0.2-2.3  C124.6,36.4,115.9,33.6,106.8,33.6z M71.8,9.4L71.8,9.4L71.8,9.4L71.8,9.4z M77,16.3c0.7-2.9-1-5.8-4-6.7c-0.4-0.1-0.9-0.2-1.4-0.2  c-3,0-5.4,2.4-5.4,5.4s2.4,5.4,5.4,5.4C74.3,20.4,76.4,18.7,77,16.3z M106.8,24.7c3,0,5.4-2.4,5.4-5.4s-2.4-5.4-5.4-5.4  s-5.4,2.4-5.4,5.4S103.7,24.7,106.8,24.7z M106.8,10.9c3,0,5.4-2.4,5.4-5.4S109.8,0,106.8,0s-5.4,2.4-5.4,5.4  C101.3,8.5,103.7,10.9,106.8,10.9z M90.8,15.8c-2.9,0.8-4.6,3.9-3.8,6.8c0.6,2.3,2.8,3.9,5.2,4h0.1c0.4,0,0.9-0.1,1.4-0.2  c2.9-0.8,4.6-3.8,3.9-6.7c-0.6-2.4-2.8-4.1-5.3-4.1C91.7,15.6,91.3,15.7,90.8,15.8z M84,28.1c0.7-2.9-1-6-4-6.7  c-0.4-0.1-0.9-0.2-1.4-0.2l0,0c-0.9,0-1.9,0.3-2.8,0.7c-1.3,0.7-2.2,2-2.5,3.3c-0.4,1.5-0.2,2.9,0.6,4.2c0.9,1.7,2.7,2.6,4.7,2.7  c0.9,0,2-0.2,2.8-0.7C82.7,30.7,83.7,29.5,84,28.1z M119.9,26.3c0.5,0.1,0.9,0.2,1.5,0.2c3,0,5.4-2.5,5.4-5.4c0-2.5-1.7-4.6-4-5.2  c-0.5-0.1-0.9-0.2-1.5-0.2c-3,0-5.4,2.5-5.4,5.5C115.8,23.5,117.5,25.7,119.9,26.3z M123.5,13.1c0.4,0.1,0.9,0.2,1.5,0.2  c3,0,5.4-2.5,5.4-5.4c0-2.5-1.7-4.6-4-5.2c-0.5-0.1-0.9-0.2-1.5-0.2c-3,0-5.4,2.5-5.4,5.5C119.5,10.2,121.2,12.4,123.5,13.1z  M137.7,22c-0.8-0.5-1.8-0.7-2.7-0.7c-3,0-5.4,2.4-5.4,5.4c0,0.4,0.1,0.9,0.2,1.4c0.3,1.4,1.3,2.6,2.5,3.3c2.6,1.6,6,0.6,7.5-2  c0.7-1.3,0.9-2.7,0.6-4.2C139.8,24,138.9,22.8,137.7,22z M147.2,13.6c-0.3-1.4-1.3-2.6-2.5-3.3c-2.6-1.6-6-0.6-7.5,2  c-0.7,1.3-0.9,2.7-0.6,4.2c0.3,1.4,1.3,2.6,2.5,3.3c2.6,1.6,6,0.7,7.5-1.9C147.4,16.5,147.6,14.9,147.2,13.6z M88.7,13.3L88.7,13.3  c0.5,0,1-0.1,1.5-0.2c2.9-0.8,4.6-3.9,3.9-6.7c-0.6-2.4-2.8-4-5.2-4c-0.5,0-0.9,0.1-1.5,0.2c-2.9,0.8-4.6,3.9-3.9,6.7  C84.1,11.6,86.2,13.3,88.7,13.3z" data-name="Royal Canin Logo"></path></svg>